<svg xmlns="http://www.w3.org/2000/svg" width="1200" height="630" viewBox="0 0 1200 630">
  <defs>
    <linearGradient id="bg" x1="0%" y1="0%" x2="100%" y2="100%">
      <stop offset="0%" style="stop-color:#f97316;stop-opacity:1" />
      <stop offset="100%" style="stop-color:#f59e0b;stop-opacity:1" />
    </linearGradient>
    <linearGradient id="card1" x1="0%" y1="0%" x2="0%" y2="100%">
      <stop offset="0%" style="stop-color:#fff7ed;stop-opacity:1" />
      <stop offset="100%" style="stop-color:#ffedd5;stop-opacity:1" />
    </linearGradient>
    <linearGradient id="card2" x1="0%" y1="0%" x2="0%" y2="100%">
      <stop offset="0%" style="stop-color:#fef3c7;stop-opacity:1" />
      <stop offset="100%" style="stop-color:#fde68a;stop-opacity:1" />
    </linearGradient>
    <filter id="shadow" x="-10%" y="-10%" width="120%" height="130%">
      <feDropShadow dx="0" dy="8" stdDeviation="16" flood-color="#00000033"/>
    </filter>
  </defs>

  <!-- 背景 -->
  <rect width="1200" height="630" fill="url(#bg)"/>

  <!-- 装飾円 -->
  <circle cx="1050" cy="-50" r="280" fill="white" fill-opacity="0.08"/>
  <circle cx="100" cy="700" r="200" fill="white" fill-opacity="0.06"/>
  <circle cx="900" cy="400" r="120" fill="white" fill-opacity="0.05"/>

  <!-- 後ろのカード3 -->
  <rect x="720" y="110" width="310" height="420" rx="24" fill="url(#card2)" filter="url(#shadow)" transform="rotate(12, 875, 320)"/>
  <!-- 後ろのカード2 -->
  <rect x="700" y="100" width="310" height="420" rx="24" fill="url(#card1)" filter="url(#shadow)" transform="rotate(6, 855, 310)"/>
  <!-- メインカード -->
  <rect x="680" y="90" width="320" height="430" rx="24" fill="white" filter="url(#shadow)"/>

  <!-- カード内：写真エリア -->
  <rect x="680" y="90" width="320" height="290" rx="0" fill="#f5f5f4"/>
  <rect x="680" y="90" width="320" height="24" rx="0" fill="#f5f5f4"/>

  <!-- 街のシルエット -->
  <rect x="760" y="220" width="20" height="80" rx="3" fill="#d6d3d1"/>
  <rect x="788" y="200" width="28" height="100" rx="3" fill="#a8a29e"/>
  <rect x="824" y="215" width="22" height="85" rx="3" fill="#d6d3d1"/>
  <rect x="854" y="230" width="18" height="70" rx="3" fill="#e7e5e4"/>
  <rect x="732" y="240" width="16" height="60" rx="3" fill="#e7e5e4"/>

  <!-- 順位バッジ -->
  <rect x="688" y="98" width="68" height="68" rx="14" fill="#f97316"/>
  <text x="722" y="142" font-family="Arial, sans-serif" font-size="36" font-weight="900" fill="white" text-anchor="middle">1</text>

  <!-- ピン -->
  <circle cx="840" cy="195" r="12" fill="#f97316"/>
  <circle cx="840" cy="195" r="5" fill="white"/>

  <!-- カード下部：街情報 -->
  <rect x="680" y="380" width="320" height="140" rx="0" fill="white"/>
  <rect x="680" y="380" width="320" height="3" fill="#f97316" fill-opacity="0.3"/>

  <text x="840" y="412" font-family="Arial, sans-serif" font-size="12" fill="#9ca3af" text-anchor="middle">東京・世田谷</text>
  <text x="840" y="445" font-family="Arial, sans-serif" font-size="30" font-weight="900" fill="#1c1917" text-anchor="middle">下北沢</text>
  <text x="840" y="470" font-family="Arial, sans-serif" font-size="12" fill="#f97316" text-anchor="middle">サブカル・おしゃれ・古着</text>

  <!-- 左側：ロゴ -->
  <text x="90" y="155" font-family="Arial, sans-serif" font-size="56" font-weight="900" fill="white">&#x8857;</text>
  <text x="148" y="155" font-family="Arial, sans-serif" font-size="56" font-weight="900" fill="white" fill-opacity="0.5">deai</text>

  <!-- キャッチコピー -->
  <text x="90" y="228" font-family="Arial, sans-serif" font-size="36" font-weight="900" fill="white">&#x77E5;&#x3089;&#x306A;&#x304B;&#x3063;&#x305F;&#x8857;&#x306B;&#x3001;</text>
  <text x="90" y="274" font-family="Arial, sans-serif" font-size="36" font-weight="900" fill="white">&#x51FA;&#x4F1A;&#x304A;&#x3046;&#x3002;</text>

  <!-- サブコピー -->
  <text x="90" y="336" font-family="Arial, sans-serif" font-size="19" fill="white" fill-opacity="0.85">&#x597D;&#x307F;&#x306E;&#x30E9;&#x30A4;&#x30D5;&#x30B9;&#x30BF;&#x30A4;&#x30EB;&#x3092;&#x9078;&#x3076;&#x3060;&#x3051;&#x3067;&#x3001;</text>
  <text x="90" y="362" font-family="Arial, sans-serif" font-size="19" fill="white" fill-opacity="0.85">&#x3042;&#x306A;&#x305F;&#x306B;&#x3074;&#x3063;&#x305F;&#x308A;&#x306E;&#x7A74;&#x5834;&#x306A;&#x8857;&#x304C;&#x898B;&#x3064;&#x304B;&#x308B;&#x3002;</text>

  <!-- バッジ -->
  <rect x="90" y="405" width="134" height="36" rx="18" fill="white" fill-opacity="0.2"/>
  <text x="157" y="428" font-family="Arial, sans-serif" font-size="14" fill="white" text-anchor="middle">&#x6771;&#x4EAC;100&#x8857;&#x3092;&#x53CE;&#x9332;</text>

  <rect x="238" y="405" width="124" height="36" rx="18" fill="white" fill-opacity="0.2"/>
  <text x="300" y="428" font-family="Arial, sans-serif" font-size="14" fill="white" text-anchor="middle">&#x30B9;&#x30EF;&#x30A4;&#x30D7;&#x3067;&#x767A;&#x898B;</text>

  <rect x="376" y="405" width="148" height="36" rx="18" fill="white" fill-opacity="0.2"/>
  <text x="450" y="428" font-family="Arial, sans-serif" font-size="14" fill="white" text-anchor="middle">TOP10&#x30B9;&#x30DD;&#x30C3;&#x30C8;&#x6383;&#x8F09;</text>

  <!-- フッター -->
  <text x="90" y="530" font-family="Arial, sans-serif" font-size="16" fill="white" fill-opacity="0.6">&#x4F4F;&#x3080;&#x524D;&#x306B;&#x8857;&#x3068;&#x300C;&#x51FA;&#x4F1A;&#x3046;&#x300D;&#x65B0;&#x611F;&#x899A;&#x30DE;&#x30C3;&#x30C1;&#x30F3;&#x30B0;&#x30B5;&#x30FC;&#x30D3;&#x30B9;</text>
</svg>
